<svg xmlns="http://www.w3.org/2000/svg" viewBox="0 0 720 440" width="720" height="440">
  <defs>
    <filter id="ds" x="-3%" y="-3%" width="106%" height="112%">
      <feDropShadow dx="0" dy="2" stdDeviation="4" flood-opacity="0.10"/>
    </filter>
    <filter id="ds2" x="-2%" y="-2%" width="104%" height="110%">
      <feDropShadow dx="0" dy="3" stdDeviation="6" flood-opacity="0.12"/>
    </filter>
    <filter id="glow">
      <feGaussianBlur stdDeviation="6" result="blur"/>
      <feMerge><feMergeNode in="blur"/><feMergeNode in="SourceGraphic"/></feMerge>
    </filter>
    <linearGradient id="cg" x1="0%" y1="0%" x2="100%" y2="100%">
      <stop offset="0%" stop-color="#4f46e5"/>
      <stop offset="100%" stop-color="#7c3aed"/>
    </linearGradient>
    <linearGradient id="bg" x1="0%" y1="0%" x2="0%" y2="100%">
      <stop offset="0%" stop-color="#f8fafc"/>
      <stop offset="100%" stop-color="#f1f5f9"/>
    </linearGradient>
    <linearGradient id="line-l" x1="0%" y1="0%" x2="100%" y2="0%">
      <stop offset="0%" stop-color="#cbd5e1"/>
      <stop offset="100%" stop-color="#818cf8"/>
    </linearGradient>
    <linearGradient id="line-r" x1="0%" y1="0%" x2="100%" y2="0%">
      <stop offset="0%" stop-color="#818cf8"/>
      <stop offset="100%" stop-color="#34d399"/>
    </linearGradient>
  </defs>

  <!-- Background -->
  <rect width="720" height="440" rx="16" fill="url(#bg)"/>
  <rect width="720" height="440" rx="16" fill="none" stroke="#e2e8f0" stroke-width="1"/>

  <!-- Subtle grid pattern -->
  <pattern id="grid" width="30" height="30" patternUnits="userSpaceOnUse">
    <circle cx="15" cy="15" r="0.5" fill="#cbd5e1" opacity="0.4"/>
  </pattern>
  <rect width="720" height="440" fill="url(#grid)" rx="16"/>

  <!-- Column labels -->
  <text x="95" y="34" text-anchor="middle" font-family="Inter, system-ui, sans-serif" font-size="10" fill="#94a3b8" font-weight="600" letter-spacing="2">DATA SOURCES</text>
  <line x1="40" y1="42" x2="150" y2="42" stroke="#e2e8f0" stroke-width="1"/>

  <text x="622" y="34" text-anchor="middle" font-family="Inter, system-ui, sans-serif" font-size="10" fill="#94a3b8" font-weight="600" letter-spacing="2">CAPABILITIES</text>
  <line x1="560" y1="42" x2="685" y2="42" stroke="#e2e8f0" stroke-width="1"/>

  <!-- ===== DATA SOURCES (Left) ===== -->

  <!-- Jira -->
  <rect x="22" y="62" width="155" height="62" rx="10" fill="#ffffff" stroke="#e2e8f0" stroke-width="1" filter="url(#ds)"/>
  <rect x="32" y="72" width="36" height="36" rx="8" fill="#0052cc"/>
  <text x="50" y="96" text-anchor="middle" font-family="Inter, system-ui, sans-serif" font-size="15" fill="#ffffff" font-weight="700">J</text>
  <text x="76" y="86" font-family="Inter, system-ui, sans-serif" font-size="12" fill="#1e293b" font-weight="600">Jira</text>
  <text x="76" y="100" font-family="Inter, system-ui, sans-serif" font-size="8.5" fill="#94a3b8">Tickets · Sprints · Boards</text>

  <!-- GitHub -->
  <rect x="22" y="140" width="155" height="62" rx="10" fill="#ffffff" stroke="#e2e8f0" stroke-width="1" filter="url(#ds)"/>
  <rect x="32" y="150" width="36" height="36" rx="8" fill="#24292f"/>
  <text x="50" y="174" text-anchor="middle" font-family="Inter, system-ui, sans-serif" font-size="15" fill="#ffffff" font-weight="700">G</text>
  <text x="76" y="164" font-family="Inter, system-ui, sans-serif" font-size="12" fill="#1e293b" font-weight="600">GitHub</text>
  <text x="76" y="178" font-family="Inter, system-ui, sans-serif" font-size="8.5" fill="#94a3b8">PRs · Reviews · Branches</text>

  <!-- Confluence -->
  <rect x="22" y="218" width="155" height="62" rx="10" fill="#ffffff" stroke="#e2e8f0" stroke-width="1" filter="url(#ds)"/>
  <rect x="32" y="228" width="36" height="36" rx="8" fill="#1868db"/>
  <text x="50" y="252" text-anchor="middle" font-family="Inter, system-ui, sans-serif" font-size="15" fill="#ffffff" font-weight="700">C</text>
  <text x="76" y="242" font-family="Inter, system-ui, sans-serif" font-size="12" fill="#1e293b" font-weight="600">Confluence</text>
  <text x="76" y="256" font-family="Inter, system-ui, sans-serif" font-size="8.5" fill="#94a3b8">Tech Demos · Blogs</text>

  <!-- Google Chat -->
  <rect x="22" y="296" width="155" height="62" rx="10" fill="#ffffff" stroke="#e2e8f0" stroke-width="1" filter="url(#ds)"/>
  <rect x="32" y="306" width="36" height="36" rx="8" fill="#00ac47"/>
  <text x="50" y="330" text-anchor="middle" font-family="Inter, system-ui, sans-serif" font-size="15" fill="#ffffff" font-weight="700">G</text>
  <text x="76" y="320" font-family="Inter, system-ui, sans-serif" font-size="12" fill="#1e293b" font-weight="600">Google Chat</text>
  <text x="76" y="334" font-family="Inter, system-ui, sans-serif" font-size="8.5" fill="#94a3b8">Notifications</text>

  <!-- ===== CENTER: Sprint Scribe ===== -->
  <rect x="245" y="105" width="230" height="160" rx="16" fill="url(#cg)" filter="url(#ds2)"/>

  <!-- Inner glow -->
  <rect x="249" y="109" width="222" height="152" rx="14" fill="none" stroke="rgba(255,255,255,0.15)" stroke-width="1"/>

  <!-- Logo -->
  <rect x="330" y="120" width="44" height="44" rx="12" fill="rgba(255,255,255,0.2)"/>
  <text x="352" y="150" text-anchor="middle" font-size="22">🚀</text>

  <text x="360" y="186" text-anchor="middle" font-family="Inter, system-ui, sans-serif" font-size="20" fill="#ffffff" font-weight="800">Sprint Scribe</text>
  <text x="360" y="205" text-anchor="middle" font-family="Inter, system-ui, sans-serif" font-size="12" fill="#c7d2fe">AI Agent</text>

  <!-- GPT badge -->
  <rect x="305" y="218" width="110" height="26" rx="13" fill="rgba(255,255,255,0.15)" stroke="rgba(255,255,255,0.25)" stroke-width="1"/>
  <text x="360" y="236" text-anchor="middle" font-family="Inter, system-ui, sans-serif" font-size="10" fill="#e0e7ff" font-weight="500">⚡ OpenAI GPT-4o</text>

  <!-- FastAPI badge -->
  <rect x="290" y="250" width="140" height="20" rx="10" fill="rgba(255,255,255,0.1)"/>
  <text x="360" y="264" text-anchor="middle" font-family="Inter, system-ui, sans-serif" font-size="9" fill="#c7d2fe">Python · FastAPI · Chart.js</text>

  <!-- ===== CAPABILITIES (Right) ===== -->
  <rect x="540" y="56" width="165" height="42" rx="10" fill="#ffffff" stroke="#d1fae5" stroke-width="1.5" filter="url(#ds)"/>
  <text x="556" y="82" font-family="Inter, system-ui, sans-serif" font-size="13">☀️</text>
  <text x="574" y="82" font-family="Inter, system-ui, sans-serif" font-size="11" fill="#065f46" font-weight="600">Morning Briefing</text>

  <rect x="540" y="110" width="165" height="42" rx="10" fill="#ffffff" stroke="#d1fae5" stroke-width="1.5" filter="url(#ds)"/>
  <text x="556" y="136" font-family="Inter, system-ui, sans-serif" font-size="13">🎫</text>
  <text x="574" y="136" font-family="Inter, system-ui, sans-serif" font-size="11" fill="#065f46" font-weight="600">Ticket Deep Dive</text>

  <rect x="540" y="164" width="165" height="42" rx="10" fill="#ffffff" stroke="#d1fae5" stroke-width="1.5" filter="url(#ds)"/>
  <text x="556" y="190" font-family="Inter, system-ui, sans-serif" font-size="13">👤</text>
  <text x="574" y="190" font-family="Inter, system-ui, sans-serif" font-size="11" fill="#065f46" font-weight="600">1:1 Prep</text>

  <rect x="540" y="218" width="165" height="42" rx="10" fill="#ffffff" stroke="#d1fae5" stroke-width="1.5" filter="url(#ds)"/>
  <text x="556" y="244" font-family="Inter, system-ui, sans-serif" font-size="13">📊</text>
  <text x="574" y="244" font-family="Inter, system-ui, sans-serif" font-size="11" fill="#065f46" font-weight="600">Sprint Retro + Charts</text>

  <rect x="540" y="272" width="165" height="42" rx="10" fill="#ffffff" stroke="#d1fae5" stroke-width="1.5" filter="url(#ds)"/>
  <text x="556" y="298" font-family="Inter, system-ui, sans-serif" font-size="13">🐛</text>
  <text x="574" y="298" font-family="Inter, system-ui, sans-serif" font-size="11" fill="#065f46" font-weight="600">Log Ticket / Bug</text>

  <rect x="540" y="326" width="165" height="42" rx="10" fill="#ffffff" stroke="#d1fae5" stroke-width="1.5" filter="url(#ds)"/>
  <text x="556" y="352" font-family="Inter, system-ui, sans-serif" font-size="13">💬</text>
  <text x="574" y="352" font-family="Inter, system-ui, sans-serif" font-size="11" fill="#065f46" font-weight="600">Notify Team</text>

  <!-- ===== CONNECTION LINES ===== -->
  <!-- Left to Center (gradient curved lines) -->
  <path d="M177 93 C210 93 215 160 245 160" fill="none" stroke="url(#line-l)" stroke-width="1.8" opacity="0.7"/>
  <path d="M177 171 C210 171 215 175 245 175" fill="none" stroke="url(#line-l)" stroke-width="1.8" opacity="0.7"/>
  <path d="M177 249 C210 249 215 190 245 190" fill="none" stroke="url(#line-l)" stroke-width="1.8" opacity="0.7"/>
  <path d="M177 327 C210 327 215 210 245 210" fill="none" stroke="url(#line-l)" stroke-width="1.8" opacity="0.7"/>

  <!-- Center to Right (gradient lines) -->
  <path d="M475 155 C505 155 510 77 540 77" fill="none" stroke="url(#line-r)" stroke-width="1.8" opacity="0.7"/>
  <path d="M475 165 C505 165 510 131 540 131" fill="none" stroke="url(#line-r)" stroke-width="1.8" opacity="0.7"/>
  <path d="M475 175 C505 175 510 185 540 185" fill="none" stroke="url(#line-r)" stroke-width="1.8" opacity="0.7"/>
  <path d="M475 185 C505 185 510 239 540 239" fill="none" stroke="url(#line-r)" stroke-width="1.8" opacity="0.7"/>
  <path d="M475 200 C505 200 510 293 540 293" fill="none" stroke="url(#line-r)" stroke-width="1.8" opacity="0.7"/>
  <path d="M475 215 C505 215 510 347 540 347" fill="none" stroke="url(#line-r)" stroke-width="1.8" opacity="0.7"/>

  <!-- Connection dots -->
  <circle cx="177" cy="93" r="3" fill="#818cf8" opacity="0.6"/>
  <circle cx="177" cy="171" r="3" fill="#818cf8" opacity="0.6"/>
  <circle cx="177" cy="249" r="3" fill="#818cf8" opacity="0.6"/>
  <circle cx="177" cy="327" r="3" fill="#818cf8" opacity="0.6"/>

  <circle cx="540" cy="77" r="3" fill="#34d399" opacity="0.8"/>
  <circle cx="540" cy="131" r="3" fill="#34d399" opacity="0.8"/>
  <circle cx="540" cy="185" r="3" fill="#34d399" opacity="0.8"/>
  <circle cx="540" cy="239" r="3" fill="#34d399" opacity="0.8"/>
  <circle cx="540" cy="293" r="3" fill="#34d399" opacity="0.8"/>
  <circle cx="540" cy="347" r="3" fill="#34d399" opacity="0.8"/>

  <!-- Bottom: Tech Stack -->
  <rect x="22" y="385" width="676" height="40" rx="10" fill="#f8fafc" stroke="#e2e8f0" stroke-width="1"/>
  <text x="36" y="409" font-family="Inter, system-ui, sans-serif" font-size="9" fill="#94a3b8" font-weight="600" letter-spacing="1">TECH STACK</text>

  <rect x="120" y="395" width="62" height="20" rx="10" fill="#eef2ff" stroke="#c7d2fe" stroke-width="0.5"/>
  <text x="151" y="409" text-anchor="middle" font-family="Inter, system-ui, sans-serif" font-size="9" fill="#4f46e5" font-weight="600">Python</text>

  <rect x="190" y="395" width="62" height="20" rx="10" fill="#eef2ff" stroke="#c7d2fe" stroke-width="0.5"/>
  <text x="221" y="409" text-anchor="middle" font-family="Inter, system-ui, sans-serif" font-size="9" fill="#4f46e5" font-weight="600">FastAPI</text>

  <rect x="260" y="395" width="80" height="20" rx="10" fill="#eef2ff" stroke="#c7d2fe" stroke-width="0.5"/>
  <text x="300" y="409" text-anchor="middle" font-family="Inter, system-ui, sans-serif" font-size="9" fill="#4f46e5" font-weight="600">OpenAI GPT-4o</text>

  <rect x="348" y="395" width="62" height="20" rx="10" fill="#eef2ff" stroke="#c7d2fe" stroke-width="0.5"/>
  <text x="379" y="409" text-anchor="middle" font-family="Inter, system-ui, sans-serif" font-size="9" fill="#4f46e5" font-weight="600">Chart.js</text>

  <rect x="418" y="395" width="82" height="20" rx="10" fill="#eef2ff" stroke="#c7d2fe" stroke-width="0.5"/>
  <text x="459" y="409" text-anchor="middle" font-family="Inter, system-ui, sans-serif" font-size="9" fill="#4f46e5" font-weight="600">Jira REST API</text>

  <rect x="508" y="395" width="82" height="20" rx="10" fill="#eef2ff" stroke="#c7d2fe" stroke-width="0.5"/>
  <text x="549" y="409" text-anchor="middle" font-family="Inter, system-ui, sans-serif" font-size="9" fill="#4f46e5" font-weight="600">GitHub API</text>

  <rect x="598" y="395" width="90" height="20" rx="10" fill="#eef2ff" stroke="#c7d2fe" stroke-width="0.5"/>
  <text x="643" y="409" text-anchor="middle" font-family="Inter, system-ui, sans-serif" font-size="9" fill="#4f46e5" font-weight="600">Confluence API</text>
</svg>
